# xmcd
#
# Track frame offsets:
#	150
#	18663
#	39315
#	61662
#	82924
#	105391
#	123187
#	142505
#	160356
#	179339
#	193928
#	216161
#	220440
#	240491
#	258248
#	282145
#
# Disc length: 3788 seconds
#
# Revision: 1
# Processed by: cddbd v1.5.2PL0 Copyright (c) Steve Scherf et al.
# Submitted via: audiograbber 1.83.01
#
DISCID=d50eca10
DTITLE=Brad Paisley - 5th Gear
DYEAR=2007
DGENRE=Country
TTITLE0=All I Wanted Was A Car
TTITLE1=Ticks
TTITLE2=Online
TTITLE3=Letter To Me
TTITLE4=Some Mistakes
TTITLE5=It Did
TTITLE6=Mr. Policeman
TTITLE7=If Love Was A Plane
TTITLE8=Oh Love
TTITLE9=Better Than This
TTITLE10=With You, Without You
TTITLE11=Previously
TTITLE12=Bigger Fish To Fry
TTITLE13=When We All Get To Heaven
TTITLE14=Throttleneck (instrumental)
TTITLE15=Untitled
EXTD=
EXTT0=
EXTT1=
EXTT2=
EXTT3=
EXTT4=
EXTT5=
EXTT6=
EXTT7=
EXTT8=
EXTT9=
EXTT10=
EXTT11=
EXTT12=
EXTT13=
EXTT14=
EXTT15=
PLAYORDER=
